<?xml version="1.0" encoding="utf-8"?>
<!-- Generator: Adobe Illustrator 27.0.0, SVG Export Plug-In . SVG Version: 6.00 Build 0)  -->
<svg version="1.1" id="Layer_1" focusable="false" xmlns="http://www.w3.org/2000/svg" xmlns:xlink="http://www.w3.org/1999/xlink"
	 x="0px" y="0px" viewBox="0 0 576 512" style="enable-background:new 0 0 576 512;" xml:space="preserve">
<path d="M302.2,218.4c0,17.2-10.5,27.1-29,27.1h-24.3v-54.2h24.4C291.7,191.3,302.2,201.1,302.2,218.4L302.2,218.4z M349.7,281
	c0,8.3,7.2,13.7,18.5,13.7c14.4,0,25.2-9.1,25.2-21.9v-7.7l-23.5,1.5C356.6,267.5,349.7,272.4,349.7,281z M576,79v352
	c0,26.5-21.5,48-48,48H48c-26.5,0-48-21.5-48-48V79c0-26.5,21.5-48,48-48h480C554.5,31,576,52.5,576,79z M127.8,197.2
	c8.4,0.7,16.8-4.2,22.1-10.4c5.2-6.4,8.6-15,7.7-23.7c-7.4,0.3-16.6,4.9-21.9,11.3C130.9,179.9,126.8,188.8,127.8,197.2L127.8,197.2
	z M188.4,271.7c-0.2-0.2-19.6-7.6-19.8-30c-0.2-18.7,15.3-27.7,16-28.2c-8.8-13-22.4-14.4-27.1-14.7c-12.2-0.7-22.6,6.9-28.4,6.9
	c-5.9,0-14.7-6.6-24.3-6.4c-12.5,0.2-24.2,7.3-30.5,18.6c-13.1,22.6-3.4,56,9.3,74.4c6.2,9.1,13.7,19.1,23.5,18.7
	c9.3-0.4,13-6,24.2-6c11.3,0,14.5,6,24.3,5.9c10.2-0.2,16.5-9.1,22.8-18.2C185.3,282.3,188.2,272.3,188.4,271.7z M323.8,218.3
	c0-26.6-18.5-44.8-44.9-44.8h-51.2v136.4h21.2v-46.6h29.3C305,263.3,323.8,244.9,323.8,218.3z M413.8,242c0-19.7-15.8-32.4-40-32.4
	c-22.5,0-39.1,12.9-39.7,30.5h19.1c1.6-8.4,9.4-13.9,20-13.9c13,0,20.2,6,20.2,17.2v7.5l-26.4,1.6c-24.6,1.5-37.9,11.6-37.9,29.1
	c0,17.7,13.7,29.4,33.4,29.4c13.3,0,25.6-6.7,31.2-17.4h0.4V310h19.6L413.8,242L413.8,242z M516,210.9h-21.5l-24.9,80.6h-0.4
	l-24.9-80.6H422l35.9,99.3l-1.9,6c-3.2,10.2-8.5,14.2-17.9,14.2c-1.7,0-4.9-0.2-6.2-0.3v16.4c1.2,0.4,6.5,0.5,8.1,0.5
	c20.7,0,30.4-7.9,38.9-31.8L516,210.9z"/>
</svg>
